<?xml version="1.0" encoding="utf-8"?>
<!-- Generator: Adobe Illustrator 16.0.0, SVG Export Plug-In . SVG Version: 6.00 Build 0)  -->
<!DOCTYPE svg PUBLIC "-//W3C//DTD SVG 1.1//EN" "http://www.w3.org/Graphics/SVG/1.1/DTD/svg11.dtd">
<svg version="1.1" id="Layer_1" xmlns="http://www.w3.org/2000/svg" xmlns:xlink="http://www.w3.org/1999/xlink" x="0px" y="0px"
	 width="50px" height="50px" viewBox="0 0 75 75" xml:space="preserve">
<g>
	<g>
		<path fill="#FFFFFF" d="M0,70.351C0,48.464,0,26.577,0,4.69C1.084,2.647,2.646,1.083,4.69,0c21.887,0,43.773,0,65.661,0
			c1.976,0.897,3.347,2.486,4.69,4.104c0,22.278,0,44.557,0,66.834c-1.173,1.563-2.537,2.935-4.104,4.104
			c-22.277,0-44.556,0-66.834,0C2.486,73.696,0.895,72.328,0,70.351z M37.652,15.74c-9.377,0-18.754,0.077-28.129-0.054
			c-2.366-0.033-3.156,0.506-3.137,3.026c0.12,15.725,0.106,31.451,0.011,47.176c-0.014,2.282,0.583,2.976,2.917,2.964
			c18.851-0.091,37.701-0.086,56.552-0.006c2.233,0.01,3.006-0.512,2.99-2.893c-0.105-15.822-0.094-31.646-0.009-47.468
			c0.014-2.167-0.555-2.826-2.771-2.797C56.601,15.81,47.126,15.74,37.652,15.74z"/>
		<path fill="#FFFFFF" d="M26.212,37.553c-4.78-1.899-8.751-3.465-12.712-5.056c-1.786-0.718-3.098-5.214-1.991-6.683
			c0.528-0.702,1.07-0.216,1.542-0.009c6.614,2.907,13.204,5.87,19.833,8.743c1.665,0.722,1.102,2.073,1.19,3.25
			c0.088,1.185,0.065,2.208-1.391,2.83c-6.553,2.802-13.057,5.718-19.563,8.628c-1.241,0.556-1.674,0.341-1.8-1.09
			c-0.388-4.375-0.308-4.599,3.756-6.206C18.517,40.599,21.956,39.237,26.212,37.553z"/>
		<path fill="#FFFFFF" d="M50.113,50.423c3.896,0,7.796,0.104,11.686-0.037c2.451-0.09,2.049,1.502,1.992,2.899
			c-0.054,1.303,0.674,3.044-1.863,3.018c-7.693-0.077-15.388-0.097-23.08,0.01c-2.756,0.038-1.871-1.829-1.982-3.192
			c-0.123-1.518-0.199-2.869,2.147-2.748C42.705,50.563,46.413,50.423,50.113,50.423z"/>
	</g>
</g>
</svg>
