<?xml version="1.0" encoding="utf-8"?>
<!DOCTYPE svg PUBLIC "-//W3C//DTD SVG 1.1//EN" "http://www.w3.org/Graphics/SVG/1.1/DTD/svg11.dtd">
<svg version="1.1" id="Layer_1" xmlns="http://www.w3.org/2000/svg" xmlns:xlink="http://www.w3.org/1999/xlink" x="0px" y="0px"
	 width="50px" height="50px" viewBox="0 0 75 75" xml:space="preserve">
<g>
	<g>
		<path fill="#FFFFFF" fill-rule="evenodd" clip-rule="evenodd" d="M42.52,73.24c-2.588-0.883-5.286-1.532-7.744-2.69
			c-9.187-4.327-13.427-11.896-13.719-21.839c-0.156-5.323,0.714-7.936,3.825-12.446c-1.48,0.353-2.835,0.888-4.215,0.959
			c-2.657,0.138-5.329,0.038-7.991-0.042c-0.274-0.008-0.659-0.506-0.78-0.852c-1.258-3.583-2.856-6.928-5.873-9.429
			c-0.789-0.654-1.497-1.472-2.045-2.338C2.987,22.999,2.145,21.34,1.24,19.72c0-0.96,0-1.92,0-2.88
			c0.09-0.21,0.176-0.422,0.271-0.63c0.825-1.81,1.567-3.666,2.511-5.412C4.596,9.733,5.593,9.17,6.946,9.412
			c2.248,0.401,4.231-0.047,5.87-1.824C14.818,5.417,16.934,3.351,19,1.24c0.8,0,1.6,0,2.4,0c2.422,0.632,4.954,0.999,7.24,1.956
			c3.811,1.596,7.467,3.562,11.179,5.391c0.823,0.405,1.664,0.812,2.396,1.354c1.057,0.782,1.862,0.499,2.72-0.305
			c0.843-0.789,1.677-1.638,2.657-2.22c3.291-1.95,8.548-1.183,11.31,1.628c2.674,2.722,4.428,6.045,5.901,9.519
			c0.154,0.364,0.001,0.92-0.145,1.341c-0.872,2.521-2.171,4.924-2.193,7.674c-0.005,0.52,0.234,1.151,0.576,1.544
			c1.201,1.377,2.269,2.781,2.333,4.713c0.008,0.223,0.139,0.457,0.257,0.659c1.157,1.985,2.222,3.995,1.759,6.758
			c1.175-0.532,2.095-0.939,3.005-1.364c0.938-0.438,1.861-1.048,2.894-0.261c0.983,0.749,1.381,1.776,1.109,2.965
			c-0.623,2.719-1.222,5.448-1.998,8.125c-0.825,2.848-2.755,4.978-5.176,6.554c-3.065,1.997-6.26,1.321-9.381-0.022
			c-0.654-0.282-1.262-0.674-1.939-1.042c-0.292,0.323-0.566,0.602-0.812,0.902c-1.839,2.257-6.478,2.313-7.664-0.995
			c-0.34-0.948-0.927-1.232-1.799-1.103c-0.889,0.134-1.902-0.717-2.737,0.422c1.232,2.277,2.796,4.187,5.654,4.698
			c-2.006,0.459-3.303-0.033-6.592-2.448c-0.499,3.442,1.04,4.752,5.982,5.097c0.011,0.112,0.022,0.224,0.033,0.337
			c-1.297,0.127-2.593,0.255-3.875,0.38c0.634,2.342,0.879,2.6,3.409,3.394c-0.697,0.175-1.239,0.312-1.781,0.447
			c-0.029,0.106-0.059,0.212-0.087,0.318c0.957,0.263,1.91,0.732,2.871,0.75c3.149,0.058,6.302-0.044,9.453-0.096
			c0.419-0.007,0.837-0.078,1.303,0.094c-3.126,1.051-6.25,2.107-9.38,3.149c-1.729,0.575-3.468,1.125-5.203,1.687
			C43.96,73.24,43.24,73.24,42.52,73.24z M20.151,14.133c-0.047,0.104-0.094,0.208-0.142,0.312c-0.424-0.175-0.863-0.322-1.271-0.53
			c-3.501-1.791-7.213-2.793-11.143-2.92c-0.639-0.021-1.495,0.025-1.896,0.41c-1.832,1.756-3.153,3.823-3.024,6.518
			c0.145,3.003,1.214,5.63,3.433,7.672c3.205,2.947,5.944,6.154,6.552,10.535c4.899,0.737,9.485,0.546,13.896-1.525
			c4.113-1.931,8.582-2.718,12.967-3.75c0.248-0.058,0.521-0.007,0.684-0.007c-0.152,1.788-0.376,3.493-0.428,5.204
			c-0.141,4.651,0.444,5.475,4.758,7.03c0.352,0.126,0.723,0.199,1.098,0.301c-2.17,3.123-2.095,5.603,0.82,8.396
			c0.845,0.811,1.442,2.038,1.782,3.185c0.827,2.785,4.368,3.585,6.554,0.837c0.148-0.186,0.02-0.591,0.02-0.894
			c-0.123-0.034-0.246-0.068-0.369-0.104c-0.769,1.553-1.871,2.234-3.823,1.172c0.437,0.521,0.582,0.696,0.794,0.95
			c-2.029-0.406-2.432-1.269-1.436-2.864c0.682-1.094,1.395-2.169,2.071-3.218c2.231,2.545,4.696,4.895,8.162,5.868
			c3.147,0.884,5.818,0.165,8.028-2.287c2.917-3.233,4.373-7.1,4.995-11.334c0.063-0.425,0.038-0.889-0.063-1.306
			c-0.277-1.147-0.963-1.304-2.051-0.833c-0.992,0.431-2.099,0.749-3.171,0.802c-1.013,0.051-1.547,0.324-1.773,1.32
			c-0.158,0.694-0.369,1.415-0.734,2.017c-0.633,1.044-1.403,2.005-2.116,3.001c-0.062-0.052-0.124-0.104-0.186-0.155
			c0.596-1.247,1.192-2.493,1.794-3.753c-1.83-0.729-2.436,0.703-3.544,1.291c0.534-0.786,1.067-1.572,1.784-2.628
			c-1.051,0.283-1.844,0.497-2.613,0.704c1.043-1.502,2.949-1.568,4.389-0.136c0.381-0.738,0.381-0.738-1.267-1.699
			c0.267-0.204,0.562-0.43,0.856-0.654c-0.272-0.244-0.545-0.487-1.006-0.9c0.002,0.008-0.066-0.328-0.119-0.591
			c1.094-0.003,2.336-0.22,3.119,1.098c-0.807-2.197-0.532-4.808-2.934-6.26c0.271,0,0.498,0,0.796,0
			c-0.708-1.459-1.375-2.831-2.087-4.298c-0.087,0.413-0.149,0.71-0.206,0.983c-1.189-2.4-1.081-4.771,0.066-7.144
			c0.345-0.713,0.483-1.523,0.795-2.256c1.02-2.402,0.641-4.685-0.841-6.688c-1.704-2.305-3.592-4.479-5.491-6.63
			c-0.397-0.451-1.19-0.554-1.802-0.818c-0.3,1.015-0.94,0.39-1.355,0.206c-3.256-1.443-6.751,0.598-8.67,3.352
			c1.042,0.656,2.083,1.318,3.129,1.97c2.471,1.54,3.899,3.639,4.271,6.636c0.304,2.458,0.496,5.177,3.247,6.505
			c0.017,0.008-0.013,0.111-0.025,0.203c-0.611-0.172-1.205-0.339-1.814-0.511c-0.052,0.34-0.084,0.55-0.153,1.005
			c-0.73-2.28-1.478-4.299-2.018-6.372c-0.958-3.676-3.375-6.083-6.561-7.845c-3.491-1.931-6.929-3.995-10.557-5.634
			c-3.58-1.618-7.334-2.876-11.073-4.108c-2.91-0.958-5.131,0.088-6.863,2.673c-1.026,1.532-2.523,2.75-3.812,4.105
			c-0.174,0.183-0.365,0.349-0.5,0.478C14.805,11.543,17.478,12.838,20.151,14.133z M30.502,34.471
			c-1.449,0.724-2.852,1.358-4.172,2.134c-0.324,0.19-0.572,0.864-0.524,1.277c0.565,4.907,2.856,8.837,6.891,11.695
			c1.986,1.407,4.038,2.722,6.075,4.056c0.688,0.451,1.422,0.834,2.135,1.247c0.115-0.066,0.23-0.134,0.346-0.2
			c-0.099-0.324-0.095-0.809-0.312-0.948c-2.009-1.29-3.097-3.308-4.221-5.279C34.228,44.081,32.165,39.51,30.502,34.471z
			 M22.587,44.356c-0.155,0.018-0.31,0.034-0.465,0.051c0,1.863-0.09,3.732,0.046,5.586c0.051,0.7,0.474,1.511,0.979,2.021
			c4.214,4.25,9.456,6.539,15.224,7.775c0.444,0.095,0.892,0.177,1.35,0.268c0.229-1.218,0.431-2.301,0.646-3.448
			C32.84,54.801,26.323,51.599,22.587,44.356z M42.85,66.562c-0.546-0.835-1.057-1.496-1.434-2.227
			c-0.378-0.733-0.927-0.88-1.696-1.006c-2.627-0.429-5.295-0.788-7.825-1.571c-2.67-0.827-5.198-2.109-7.684-3.148
			c0.655,2.634,2.828,5.236,5.38,6.266c0.997,0.402,2.007,0.775,3.031,1.102C35.923,67.028,39.287,66.92,42.85,66.562z
			 M44.33,68.868c-0.027,0.104-0.054,0.208-0.081,0.312c-2.81,0.251-5.619,0.502-8.429,0.753c1.998,0.811,4.091,1.504,6.221,2.055
			c0.784,0.202,1.675,0.184,2.483,0.055c1.241-0.198,1.491-0.957,0.757-1.955C44.976,69.672,44.647,69.273,44.33,68.868z"/>
		<path fill="#FFFFFF" fill-rule="evenodd" clip-rule="evenodd" d="M48.07,26.856c-3.461-5.641-4.626-4.938-8.682-5.227
			c1.19-0.468,2.381-0.937,3.707-1.458c-2.745-1.34-5.858-1.007-8.211-1.664c2.224,0,4.954-0.118,7.668,0.049
			c1.396,0.085,2.467,1.014,3.033,2.409C46.387,22.94,47.239,24.894,48.07,26.856z"/>
		<path fill="#FFFFFF" fill-rule="evenodd" clip-rule="evenodd" d="M53.223,41.153c0.647-0.271,1.294-0.544,2.054-0.862
			c-0.347-1.063-1.032-0.78-1.438-0.602c-0.67-0.299-1.129-0.504-1.563-0.698c1.566-1.09,3.304-1.705,4.986-1.044
			c0.048,0.792,0.093,1.503,0.137,2.22c0.384,0.16,0.726,0.303,0.985,0.411c-1.637,0.211-3.306,0.427-4.974,0.643
			C53.348,41.198,53.285,41.176,53.223,41.153z"/>
		<path fill="#FFFFFF" fill-rule="evenodd" clip-rule="evenodd" d="M59.192,19.636c-1.219-2.565-2.683-5.649-4.291-9.034
			C58.019,13.328,58.9,16.672,59.192,19.636z"/>
		<path fill="#FFFFFF" fill-rule="evenodd" clip-rule="evenodd" d="M72.188,41.662c-1.291,1.734-3.459,2.081-4.954,0.702
			C69.122,43.009,70.646,42.359,72.188,41.662z"/>
		<path fill="#FFFFFF" fill-rule="evenodd" clip-rule="evenodd" d="M52.021,34.942c0.225-1.575,0.833-1.925,3.144-1.727
			C54.181,33.755,53.038,34.383,52.021,34.942z"/>
		<path fill="#FFFFFF" fill-rule="evenodd" clip-rule="evenodd" d="M49.965,50.936c0.759-1.594,0.948-1.683,2.364-1.215
			C51.603,50.094,50.781,50.517,49.965,50.936z"/>
	</g>
</g>
</svg>
