<?xml version="1.0" encoding="utf-8"?>
<!DOCTYPE svg PUBLIC "-//W3C//DTD SVG 1.1//EN" "http://www.w3.org/Graphics/SVG/1.1/DTD/svg11.dtd">
<svg version="1.1" id="Layer_1" xmlns="http://www.w3.org/2000/svg" xmlns:xlink="http://www.w3.org/1999/xlink" x="0px" y="0px"
	 width="50px" height="50px" viewBox="0 0 75 75" xml:space="preserve">
<g>
	<g>
		<path fill="#FFFFFF" d="M36.417,38.811c-2.892-2.473-5.715-4.971-7.494-8.381c-1.473-2.824-1.342-5.58,0.914-7.855
			c2.375-2.395,5.008-4.533,7.531-6.78c1.104-0.983,2.243-1.928,3.317-2.942c3.292-3.104,5.059-6.803,4.207-11.78
			c1.676,2.807,1.722,5.389,0.758,8.04c-1.364,3.753-4.059,6.483-6.96,9.064c-1.711,1.523-3.521,2.975-5.017,4.693
			c-2.867,3.294-3.087,6.519-0.908,10.314c0.851,1.481,1.873,2.864,2.812,4.295C35.866,37.917,36.138,38.367,36.417,38.811z"/>
		<path fill="#FFFFFF" d="M20.669,61.957c-1.582,0.525-3.066,0.945-4.482,1.529c-0.499,0.207-0.829,0.82-1.237,1.248
			c0.458,0.365,0.87,0.947,1.385,1.063c2.456,0.555,4.923,1.23,7.419,1.402c4.768,0.332,9.562,0.545,14.338,0.451
			c6.054-0.119,12.118-0.439,18.061-1.801c0.604-0.139,1.256-0.24,1.774-0.547c0.878-0.521,1.666-1.191,2.566-1.852
			c0.386,0.736-0.251,1.34-0.938,1.664c-1.541,0.727-3.103,1.566-4.747,1.881c-4.187,0.795-8.402,1.574-12.643,1.898
			c-4.685,0.361-9.422,0.455-14.113,0.213c-4.99-0.256-9.959-0.992-14.92-1.652c-0.845-0.111-2.08-0.736-2.291-1.395
			c-0.344-1.072,0.961-1.52,1.776-1.98C14.881,62.795,18.488,61.859,20.669,61.957z"/>
		<path fill="#FFFFFF" d="M41.162,41.4c1.678-2.602,1.049-4.863-0.842-7.022c-0.709-0.808-1.291-1.761-1.774-2.725
			c-1.562-3.109-1.132-6.133,1.161-8.746c2.373-2.702,5.451-4.334,8.704-5.688c1.121-0.466,2.268-0.871,3.364-1.288
			c-2.322,1.677-4.65,3.352-6.97,5.042c-0.343,0.25-0.65,0.555-0.954,0.855c-2.965,2.941-3.2,5.097-0.932,8.577
			c0.51,0.781,1.058,1.538,1.572,2.315c1.279,1.935,1.282,3.904-0.098,5.748c-0.846,1.133-1.914,2.1-2.884,3.141
			C41.396,41.539,41.278,41.471,41.162,41.4z"/>
		<path fill="#FFFFFF" d="M26.771,56.977c0.016,1.258,0.889,1.479,1.794,1.641c4.752,0.857,9.534,0.967,14.235-0.109
			c2.147-0.492,3.5,0.703,5.149,1.371c0.018,0.121,0.035,0.244,0.053,0.367c-2.159,0.535-4.295,1.227-6.485,1.574
			c-4.289,0.68-8.601,0.703-12.847-0.381c-1.042-0.266-2.084-0.67-3.018-1.199c-1.579-0.896-1.516-1.967,0.071-2.82
			C26.024,57.258,26.355,57.15,26.771,56.977z"/>
		<path fill="#FFFFFF" d="M25.031,49.094c-0.339,1.365,0.082,2.031,1.508,2.238c1.648,0.24,3.313,0.43,4.977,0.492
			c4.904,0.182,9.771-0.107,14.613-1.039c0.914-0.176,2.036,0.725,3.062,1.129c-0.025,0.178-0.053,0.355-0.078,0.533
			c-3.042,0.512-6.066,1.174-9.129,1.492c-2.775,0.287-5.599,0.379-8.382,0.223c-2.38-0.133-4.76-0.637-7.084-1.201
			C23.68,52.758,23,51.898,22.249,51.34c0.672-0.639,1.335-1.287,2.024-1.906C24.438,49.285,24.693,49.24,25.031,49.094z"/>
		<path fill="#FFFFFF" d="M51.116,43.473c-1.636,1.338-3.636,1.525-5.564,1.848c-5.532,0.924-11.12,1.342-16.717,1.135
			c-3.477-0.131-6.943-0.668-10.398-1.141c-0.662-0.092-1.247-0.738-1.867-1.129c0.559-0.438,1.061-0.992,1.685-1.291
			c2.718-1.309,5.597-2.066,8.881-2.35c-1.597,0.598-2.97,1.027-4.263,1.631c-0.572,0.268-0.982,0.881-1.465,1.338
			c0.609,0.35,1.205,0.971,1.831,1.004c4.186,0.217,8.378,0.412,12.568,0.404c2.749-0.004,5.503-0.309,8.246-0.57
			C46.401,44.127,48.738,43.773,51.116,43.473z"/>
		<path fill="#FFFFFF" d="M21.941,71.523c5.625,0.137,11.254,0.461,16.875,0.359c6.718-0.123,13.411-0.785,19.883-2.771
			c1.645-0.504,3.202-1.285,4.776-1.93c-0.689,1.211-1.853,2.055-3.175,2.438c-3.082,0.893-6.186,1.801-9.344,2.314
			c-6.003,0.98-12.088,0.924-18.145,0.709c-3.628-0.131-7.242-0.652-10.861-0.998C21.947,71.605,21.944,71.564,21.941,71.523z"/>
		<path fill="#FFFFFF" d="M55.123,40.447c2.525-1.193,5.453-0.758,7.247,0.99c1.843,1.793,1.958,4.428,0.264,6.67
			c-1.814,2.4-4.415,3.629-7.118,4.684c-0.679,0.266-1.387,0.453-1.784,0.582c1.417-1.051,3.19-2.135,4.663-3.535
			c1.062-1.012,2.024-2.338,2.504-3.707c1.09-3.123-1.646-6.17-4.949-5.752C55.723,40.408,55.492,40.416,55.123,40.447z"/>
	</g>
</g>
</svg>
