<?xml version="1.0" encoding="utf-8"?>
<!DOCTYPE svg PUBLIC "-//W3C//DTD SVG 1.1//EN" "http://www.w3.org/Graphics/SVG/1.1/DTD/svg11.dtd">
<svg version="1.1" id="Layer_1" xmlns="http://www.w3.org/2000/svg" xmlns:xlink="http://www.w3.org/1999/xlink" x="0px" y="0px"
	 width="50px" height="50px" viewBox="0 0 75 75" xml:space="preserve">
<g>
	<g>
		<path fill="none" stroke="#FFFFFF" stroke-width="1.25" stroke-linecap="round" stroke-linejoin="round" stroke-miterlimit="10" d="
			M31.31,60.005c-1.437,0.502-2.867,1.164-4.432,0.704c-0.907-0.268-1.756-0.719-2.646-1.055c-0.424-0.161-0.913-0.424-1.309-0.339
			c-3.003,0.633-5.51,2.05-6.953,4.892c-1.888,3.716,0.081,7.427,3.353,8.739c4.372,1.749,9.084,0.598,11.961-3.008
			c1.071-1.342,1.667-2.95,1.359-4.778c-0.198-1.185-0.226-2.4-0.39-3.593c-0.053-0.375-0.304-0.722-0.464-1.08"/>
		<path fill="none" stroke="#FFFFFF" stroke-width="1.25" stroke-linecap="round" stroke-linejoin="round" stroke-miterlimit="10" d="
			M38.144,56.77c-0.559,0.479-1.147,0.929-1.671,1.444c-0.926,0.91-0.754,1.959-0.241,2.989c0.908,1.821,2.475,2.893,4.313,3.594
			c4.636,1.769,9.215,1.681,13.658-0.611c1.25-0.646,2.321-1.544,3.019-2.854c0.976-1.832,0.407-3.508-1.1-4.671
			c-2.744-2.119-5.831-2.14-8.97-1.166c-0.537,0.166-1.005,0.853-1.313,1.406c-0.732,1.318-1.921,1.474-3.249,1.722
			c-1.545,0.287-2.887,0.084-4.203-0.661c-0.221-0.123-0.402-0.313-0.603-0.473"/>
		<path fill="none" stroke="#FFFFFF" stroke-width="1.25" stroke-linecap="round" stroke-linejoin="round" stroke-miterlimit="10" d="
			M24.475,19.24c-1.278,4.225-4.543,6.646-8.029,8.878c-1.604,1.027-2.882,2.298-2.636,4.431c0.178,1.54,1.19,2.647,2.173,3.697
			c1.022,1.09,2.218,2.019,3.336,3.018"/>
		<path fill="none" stroke="#FFFFFF" stroke-width="1.25" stroke-linecap="round" stroke-linejoin="round" stroke-miterlimit="10" d="
			M57.808,27.153c1.316-0.48,2.461-1.214,3.231-2.403c1.185-1.832,0.586-3.768-1.417-5.292c-1.065-0.81-2.272-1.104-3.493-1.145
			c-2.723-0.089-5.471-0.329-8.156,0.435c-0.174,0.05-0.396-0.069-0.596-0.109"/>
		<path fill="none" stroke="#FFFFFF" stroke-width="1.25" stroke-linecap="round" stroke-linejoin="round" stroke-miterlimit="10" d="
			M34.307,38.304c0.26,2.286-0.174,4.336-1.897,6.016c-0.302,0.296-0.295,0.883-0.508,1.295c-0.799,1.545-2.215,2.187-3.831,2.384
			c-1.384,0.168-2.717-0.073-3.962-0.808c-1.414-0.836-1.941-2.01-1.433-3.491"/>
		<path fill="none" stroke="#FFFFFF" stroke-width="1.25" stroke-linecap="round" stroke-linejoin="round" stroke-miterlimit="10" d="
			M25.673,10.247c-0.28-0.022-0.562-0.043-0.959-0.074c-1.125,2.881-1.605,5.874-0.083,8.809c0.789,1.523,2.175,2.552,3.791,3.277
			c1.735,0.779,3.511,1.277,5.403,1.442c0.375,0.033,0.823,0.292,1.064,0.589c1.177,1.442,2.295,2.932,3.269,4.188
			c-0.573,3.188-1.867,5.558-4.33,7.189"/>
		<path fill="none" stroke="#FFFFFF" stroke-width="1.25" stroke-linecap="round" stroke-linejoin="round" stroke-miterlimit="10" d="
			M35.026,23.796c3.457-0.02,6.629-0.904,9.352-3.12c1.168-0.948,2.436-1.808,3.454-2.898c2.218-2.371,0.759-5.371-1.295-6.451
			c-0.394-0.209-0.791-0.415-1.356-0.711c-0.625-4.847-3.551-7.953-8.367-8.94c-3.502-0.717-6.744,0.312-9.341,2.936"/>
		<path fill="none" stroke="#FFFFFF" stroke-width="1.25" stroke-linecap="round" stroke-linejoin="round" stroke-miterlimit="10" d="
			M19.799,40.343c-0.239,0.319-0.691,0.641-0.688,0.959c0.053,5.084,0.597,10.089,2.861,14.742c0.477,0.979,1.133,1.874,1.792,2.945
			c-0.025,0.222-0.07,0.619-0.12,1.056c0.025,0.046,0.057,0.133,0.113,0.201c1.778,2.159,4.505,2.502,6.853,0.991
			c0.574-0.367,0.677-0.849,0.982-1.322c1.004-1.555,2.109-3.065,3.35-4.434c0.637-0.702,1.643-1.069,2.482-1.59"/>
		<path fill="none" stroke="#FFFFFF" stroke-width="1.25" stroke-linecap="round" stroke-linejoin="round" stroke-miterlimit="10" d="
			M30.23,64.922c-3.396-1.979-7.037-2.139-10.791-1.438"/>
		<path fill="none" stroke="#FFFFFF" stroke-width="1.25" stroke-linecap="round" stroke-linejoin="round" stroke-miterlimit="10" d="
			M51.933,25.235c0.824,1.849,1.582,3.732,1.777,5.757c0.177,1.79,0.264,3.596,0.245,5.393c-0.04,4.354-1.827,8.192-3.704,11.988
			c-1.055,2.132-2.159,4.236-3.226,6.362c-0.104,0.208-0.088,0.475-0.129,0.714"/>
		<path fill="none" stroke="#FFFFFF" stroke-width="1.25" stroke-linecap="round" stroke-linejoin="round" stroke-miterlimit="10" d="
			M22.438,32.189c0.839,0.56,1.714,1.072,2.509,1.689c1.309,1.014,1.929,2.811,1.437,4.183c-0.6,1.669-1.826,2.618-3.585,2.889
			c-0.372,0.057-0.729,0.201-1.268,0.357c0.02,0.03-0.075-0.107-0.171-0.245"/>
		<path fill="none" stroke="#FFFFFF" stroke-width="1.25" stroke-linecap="round" stroke-linejoin="round" stroke-miterlimit="10" d="
			M28.073,6.17c-0.768-1.943-3.289-2.601-5.283-1.815c-1.042,0.412-2.151,0.657-3.23,0.976"/>
		<path fill="none" stroke="#FFFFFF" stroke-width="1.25" stroke-linecap="round" stroke-linejoin="round" stroke-miterlimit="10" d="
			M34.428,38.065c-0.042-3.637-3.979-5.905-7.191-5.491c-0.821,0.107-1.602,0.534-2.402,0.813"/>
		<path fill="none" stroke="#FFFFFF" stroke-width="1.25" stroke-linecap="round" stroke-linejoin="round" stroke-miterlimit="10" d="
			M24.356,33.867c0.82,2.315,0.453,3.686-1.32,4.917c-0.732,0.509-2.141,0.654-3.605,0.331c-0.078,0.491-0.154,0.979-0.23,1.468"/>
		<path fill="none" stroke="#FFFFFF" stroke-width="1.25" stroke-linecap="round" stroke-linejoin="round" stroke-miterlimit="10" d="
			M43.18,19.6c-1.073,1.576-2.747,1.817-4.437,1.895c-0.994,0.046-1.998-0.138-2.997-0.216"/>
		<path fill="none" stroke="#FFFFFF" stroke-width="1.25" stroke-linecap="round" stroke-linejoin="round" stroke-miterlimit="10" d="
			M42.461,10.847c0.279,0.36,0.525,0.753,0.845,1.073c1.223,1.221,1.45,2.701,1.258,4.361c-0.886,0.512-1.738,1.007-2.212,1.28
			c-2.363,0-4.36,0-6.283,0c-0.465-0.279-0.819-0.489-1.16-0.693c-0.011-1.546-0.526-2.867-1.561-3.982"/>
		<path fill="none" stroke="#FFFFFF" stroke-width="1.25" stroke-linecap="round" stroke-linejoin="round" stroke-miterlimit="10" d="
			M48.097,3.413c-1.159-0.36-2.317-0.726-3.479-1.077c-1.436-0.435-2.79-0.375-3.955,0.717"/>
		<path fill="none" stroke="#FFFFFF" stroke-width="1.25" stroke-linecap="round" stroke-linejoin="round" stroke-miterlimit="10" d="
			M29.032,26.793c-1.239,2.677-3.42,4.098-6.234,4.683c-0.169,0.035-0.321,0.154-0.481,0.233"/>
		<path fill="none" stroke="#FFFFFF" stroke-width="1.25" stroke-linecap="round" stroke-linejoin="round" stroke-miterlimit="10" d="
			M44.02,10.607c-0.359-0.36-0.72-0.72-1.214-1.215c-0.222,0.526-0.417,0.991-0.655,1.561c-0.479,0.04-1.084-0.026-1.601,0.155
			c-1.403,0.493-2.292,1.706-2.5,3.817c-0.073,0.745,0.135,1.517,0.214,2.277"/>
		<path fill="none" stroke="#FFFFFF" stroke-width="1.25" stroke-linecap="round" stroke-linejoin="round" stroke-miterlimit="10" d="
			M57.209,28.353c0.646-1.13,0.523-1.896-0.479-2.998c-1.295-1.422-3.955-1.942-5.56-1.056c0.211,0.28,0.419,0.555,0.488,0.65
			c2.558,0.313,4.36,1.595,5.5,3.551c0.973,1.669,0.886,3.619,0.298,5.565c0.912,0.98,0.799,2.237,0.188,3.251
			c-0.808,1.338-2.213,1.809-3.791,1.587"/>
		<path fill="none" stroke="#FFFFFF" stroke-width="1.25" stroke-linecap="round" stroke-linejoin="round" stroke-miterlimit="10" d="
			M36.105,17.561c0.793,1.043,2.037,0.935,3.123,1.175c0.609,0.134,1.274-0.003,1.912,0.032c0.633,0.034,0.909-0.217,0.841-0.848"/>
		<path fill="none" stroke="#FFFFFF" stroke-width="1.25" stroke-linecap="round" stroke-linejoin="round" stroke-miterlimit="10" d="
			M38.264,29.192c0.48,0.998,0.961,1.998,1.471,3.058c1.073-0.239,2.159-0.481,3.312-0.738c-1.096-2.967-2.533-5.51-4.541-7.716"/>
		<path fill="none" stroke="#FFFFFF" stroke-width="1.25" stroke-linecap="round" stroke-linejoin="round" stroke-miterlimit="10" d="
			M47.856,27.273c-1.878,0.48-3.757,0.959-5.636,1.439"/>
		<path fill="none" stroke="#FFFFFF" stroke-width="1.25" stroke-linecap="round" stroke-linejoin="round" stroke-miterlimit="10" d="
			M18.72,5.451c0.76,0.641,1.742,1.145,2.227,1.95c0.771,1.282,1.819,1.966,3.166,2.377c0.143,0.044,0.243,0.229,0.361,0.35"/>
		<path fill="none" stroke="#FFFFFF" stroke-width="1.25" stroke-linecap="round" stroke-linejoin="round" stroke-miterlimit="10" d="
			M35.986,10.247c-2.047-1.792-3.331-1.792-5.036,0"/>
		<path fill="none" stroke="#FFFFFF" stroke-width="1.25" stroke-linecap="round" stroke-linejoin="round" stroke-miterlimit="10" d="
			M49.176,3.533c-1.294,0.369-1.948,1.463-2.772,2.385C45.88,6.505,45.22,6.97,44.618,7.49"/>
		<path fill="none" stroke="#FFFFFF" stroke-width="1.25" stroke-linecap="round" stroke-linejoin="round" stroke-miterlimit="10" d="
			M47.017,4.252c-1.438-0.08-2.877-0.16-4.315-0.24"/>
		<path fill="none" stroke="#FFFFFF" stroke-width="1.25" stroke-linecap="round" stroke-linejoin="round" stroke-miterlimit="10" d="
			M25.194,5.93c-1.439,0.081-2.877,0.161-4.316,0.24"/>
		<path fill="none" stroke="#FFFFFF" stroke-width="1.25" stroke-linecap="round" stroke-linejoin="round" stroke-miterlimit="10" d="
			M55.411,20.559c-1.732,0.515-3.008,1.551-3.717,3.238"/>
		<path fill="none" stroke="#FFFFFF" stroke-width="1.25" stroke-linecap="round" stroke-linejoin="round" stroke-miterlimit="10" d="
			M34.907,17.202c-0.587,1.543-1.173,3.085-2.998,3.596"/>
		<path fill="none" stroke="#FFFFFF" stroke-width="1.25" stroke-linecap="round" stroke-linejoin="round" stroke-miterlimit="10" d="
			M43.42,21.758c2.53,1.982,4.292,4.548,5.647,7.428c0.073,0.16,0.309,0.245,0.469,0.365"/>
		<path fill="none" stroke="#FFFFFF" stroke-width="1.25" stroke-linecap="round" stroke-linejoin="round" stroke-miterlimit="10" d="
			M47.616,21.638c0.72,0.399,1.472,0.751,2.147,1.215c0.532,0.363,0.971,0.864,1.449,1.303"/>
		<path fill="none" stroke="#FFFFFF" stroke-width="1.25" stroke-linecap="round" stroke-linejoin="round" stroke-miterlimit="10" d="
			M45.22,20.199c2.361,1.208,3.814,3.304,5.279,5.393c0.127,0.183,0.315,0.322,0.475,0.482"/>
		<path fill="none" stroke="#FFFFFF" stroke-width="1.25" stroke-linecap="round" stroke-linejoin="round" stroke-miterlimit="10" d="
			M44.14,9.049c-1.438-0.777-2.005-0.689-3.117,0.479"/>
		<path fill="none" stroke="#FFFFFF" stroke-width="1.25" stroke-linecap="round" stroke-linejoin="round" stroke-miterlimit="10" d="
			M34.067,12.046c0.48,0.048,0.959,0.096,1.476,0.148c-0.428-1.725-1.212-1.912-2.555-0.748"/>
		<path fill="none" stroke="#FFFFFF" stroke-width="1.25" stroke-linecap="round" stroke-linejoin="round" stroke-miterlimit="10" d="
			M49.894,56.77c-1.357,0.598-2.754,1.126-4.064,1.819c-1.233,0.651-2.524,0.715-3.848,0.681c-0.203-0.003-0.399-0.222-0.601-0.342"
			/>
		<path fill="none" stroke="#FFFFFF" stroke-width="1.25" stroke-linecap="round" stroke-linejoin="round" stroke-miterlimit="10" d="
			M40.781,52.212c-1.086,0.545-2.174,1.088-3.533,1.769c0.597,0.675,1.106,1.252,1.615,1.83"/>
		<path fill="none" stroke="#FFFFFF" stroke-width="1.25" stroke-linecap="round" stroke-linejoin="round" stroke-miterlimit="10" d="
			M21.958,41.542c0.389,1.84,1.455,3.059,3.225,3.749c0.482,0.188,0.813,0.767,1.211,1.167"/>
		<path fill="none" stroke="#FFFFFF" stroke-width="1.25" stroke-linecap="round" stroke-linejoin="round" stroke-miterlimit="10" d="
			M29.99,36.146c-0.799-0.08-1.598-0.16-2.397-0.24"/>
		<path fill="none" stroke="#FFFFFF" stroke-width="1.25" stroke-linecap="round" stroke-linejoin="round" stroke-miterlimit="10" d="
			M28.073,37.585c0.719,0.32,1.44,0.64,2.158,0.959"/>
		<path fill="none" stroke="#FFFFFF" stroke-width="1.25" stroke-linecap="round" stroke-linejoin="round" stroke-miterlimit="10" d="
			M32.868,36.146c0.4,0.679,0.799,1.358,1.199,2.038"/>
		<path fill="none" stroke="#FFFFFF" stroke-width="1.25" stroke-linecap="round" stroke-linejoin="round" stroke-miterlimit="10" d="
			M57.449,34.348c-0.675,0.914-1.251,1.922-2.278,2.518"/>
		<path fill="none" stroke="#FFFFFF" stroke-width="1.25" stroke-linecap="round" stroke-linejoin="round" stroke-miterlimit="10" d="
			M22.197,32.068c-0.6-0.239-1.199-0.479-1.798-0.719"/>
		<path fill="none" stroke="#FFFFFF" stroke-width="1.25" stroke-linecap="round" stroke-linejoin="round" stroke-miterlimit="10" d="
			M44.38,59.287c-0.48,0.52-0.96,1.038-1.439,1.559"/>
		<path fill="none" stroke="#FFFFFF" stroke-width="1.25" stroke-linecap="round" stroke-linejoin="round" stroke-miterlimit="10" d="
			M29.032,40.941c-0.56-0.399-1.12-0.798-1.679-1.198"/>
		<path fill="none" stroke="#FFFFFF" stroke-width="1.25" stroke-linecap="round" stroke-linejoin="round" stroke-miterlimit="10" d="
			M53.013,28.592c-1.08,0.319-2.159,0.64-3.238,0.959"/>
		<path fill="none" stroke="#FFFFFF" stroke-width="1.25" stroke-linecap="round" stroke-linejoin="round" stroke-miterlimit="10" d="
			M44.38,10.727c-0.521,0.16-1.04,0.32-1.56,0.48"/>
		<path fill="none" stroke="#FFFFFF" stroke-width="1.25" stroke-linecap="round" stroke-linejoin="round" stroke-miterlimit="10" d="
			M46.537,56.289c0.239,0.44,0.479,0.88,0.72,1.318"/>
		<path fill="none" stroke="#FFFFFF" stroke-width="1.25" stroke-linecap="round" stroke-linejoin="round" stroke-miterlimit="10" d="
			M33.828,11.926c-0.676-0.109-1.271-0.918-2.04-0.24"/>
		<path fill="none" stroke="#FFFFFF" stroke-width="1.25" stroke-linecap="round" stroke-linejoin="round" stroke-miterlimit="10" d="
			M38.384,55.57c0.04,0.798,0.08,1.599,0.121,2.397"/>
		<path fill="none" stroke="#FFFFFF" stroke-width="1.25" stroke-linecap="round" stroke-linejoin="round" stroke-miterlimit="10" d="
			M19.44,39.743c0.799,0.438,1.598,0.879,2.397,1.319"/>
		<path fill="none" stroke="#FFFFFF" stroke-width="1.25" stroke-linecap="round" stroke-linejoin="round" stroke-miterlimit="10" d="
			M51.813,25.595c-0.279,0.2-0.56,0.4-0.863,0.616c0.406,0.871,0.813,1.745,1.223,2.621"/>
		<path fill="none" stroke="#FFFFFF" stroke-width="1.25" stroke-linecap="round" stroke-linejoin="round" stroke-miterlimit="10" d="
			M39.942,13.844c0.04,0.56,0.08,1.119,0.12,1.678"/>
		<path fill="none" stroke="#FFFFFF" stroke-width="1.25" stroke-linecap="round" stroke-linejoin="round" stroke-miterlimit="10" d="
			M31.429,11.686c0.4,0.04,0.799,0.08,1.199,0.12"/>
		<path fill="none" stroke="#FFFFFF" stroke-width="1.25" stroke-linecap="round" stroke-linejoin="round" stroke-miterlimit="10" d="
			M43.78,21.278c0.039,0.079,0.094,0.156,0.113,0.241c0.005,0.03-0.074,0.078-0.113,0.118"/>
		<path fill="none" stroke="#FFFFFF" stroke-width="1.25" stroke-linecap="round" stroke-linejoin="round" stroke-miterlimit="10" d="
			M35.626,23.916c-0.08,0.12-0.161,0.24-0.24,0.36"/>
	</g>
</g>
</svg>
