<?xml version="1.0" encoding="utf-8"?>
<svg version="1.1" id="Layer_1" xmlns="http://www.w3.org/2000/svg" xmlns:xlink="http://www.w3.org/1999/xlink" x="0px" y="0px" width="50px" height="50px"
	 viewBox="0 0 50 50" xml:space="preserve">
<g>
	<path fill="#FFFFFF" d="M45.3,49.3h-7l-4.6-13c-0.8-2.3-2.2-4.2-4.1-5.6s-4.1-2.2-6.6-2.2H11.2v20.8H4.7V0.7h21.5
		c3.8,0,6.8,0.4,9.2,1.1c2.4,0.7,4.3,2.3,5.8,4.6s2.3,5,2.3,7.9c0,3.4-1,6.2-2.9,8.4s-4.6,3.7-8,4.4v0.1c3.4,1.1,6,4,7.7,8.8
		L45.3,49.3z M11.2,22.7h14.4c4,0,6.9-0.6,8.7-1.9c1.8-1.3,2.7-3.4,2.7-6.5C37,8.8,33.5,6,26.5,6H11.2V22.7z"/>
</g>
</svg>
