<?xml version="1.0" encoding="utf-8"?>
<svg version="1.1" id="Layer_1" xmlns="http://www.w3.org/2000/svg" xmlns:xlink="http://www.w3.org/1999/xlink" x="0px" y="0px" width="50px" height="50px" viewBox="0 0 50 50" xml:space="preserve">
<g>
	<path fill="#FFFFFF" d="M35.9,23.8c-1.2,0.4-4.2-1-4.6-2.1c-0.3-1,0.4-1.5,1.2-1.8c1.2-0.5,2.5-0.8,3.7-1.2
		c0.6-0.2,0.9-0.4,1-1.1c0.1-0.9,0.3-1.8,0.5-2.7c0.2-1,0.6-1.9,1.5-2.5c0.2,0,0.3,0,0.5,0c1.3,0.9,1.8,2.3,2.6,3.5
		c0.4,0.7,0.8,0.9,1.5,0.6c1.2-0.4,2.4-0.6,3.5-0.9c0.7-0.2,1.4-0.3,1.8,0.4c0.5,0.7-0.1,1.3-0.5,1.8c-0.9,1-1.7,2.1-2.6,3.1
		c-0.4,0.5-0.5,0.9-0.2,1.4c0.6,1,1.1,2,1.6,3c0.3,0.7,0.4,1.3-0.2,1.9c-0.5,0.5-1.1,0.9-1.9,0.4c-0.4-0.2-1-0.3-1.4-0.5
		c-1.8-0.6-1.8-0.6-1.9-2.7c1,0.3,1.9,0.5,3.1,0.8c-0.6-1.1-1-2.1-1.6-3c-0.3-0.5-0.3-0.9,0.1-1.3c0.6-0.7,1.2-1.4,1.8-2.1
		c0.1-0.1,0.4-0.3,0.2-0.5c-0.1-0.2-0.3-0.2-0.6-0.1c-0.8,0.2-1.6,0.4-2.3,0.6c-0.8,0.3-1.2,0.1-1.6-0.7c-0.4-0.9-1-1.6-1.6-2.7
		c-0.2,1.4-0.5,2.4-0.6,3.5c-0.1,0.7-0.3,1-1,1.2c-1.1,0.3-2.2,0.7-3.6,1.1c1.1,0.4,1.9,0.8,2.7,1.1c0.4,0.2,0.7,0.4,0.2,0.7
		C36.5,23.4,36.5,23.4,35.9,23.8z"/>
	<path fill="#FFFFFF" d="M0.6,32.6c0.3-0.2,0.7-0.3,1.1-0.6c0.7-0.5,1.2-0.6,1.7,0.3c0.5,0.9,1.4,0.8,2.2,0.3
		c0.8-0.6,0.7-1.3,0.1-2C5,29.8,4.2,29,3.5,28.2c-1.3-1.7-1-3.5,0.8-4.8c1.8-1.3,4-1.1,5.2,0.6c0.3,0.4,0.3,0.6-0.1,0.9
		C8.6,25.4,8,26.5,7,25.1c-0.4-0.5-1.2-0.4-1.7,0.1s-0.2,1,0.2,1.4c0.6,0.7,1.3,1.4,1.9,2c1.1,1.1,1.5,2.4,0.8,3.9
		c-0.7,1.7-2,2.5-3.8,2.7c-1.6,0.1-2.8-0.4-3.5-1.9c0-0.1-0.1-0.1-0.1-0.2c0-0.1,0-0.1-0.1-0.2C0.7,32.8,0.7,32.7,0.6,32.6z"/>
	<path fill="#FFFFFF" d="M26.2,32.2c-0.1,0.3-0.1,0.6-0.1,0.8c-0.3,1.8-1,2.3-2.9,2.1c-2.5-0.3-4-2.5-3.6-5
		c0.4-2.1,2.3-4,4.5-4.3c3-0.5,5.2,1.5,4.9,4.5c-0.1,1.3-0.4,2.6-0.5,3.9c-0.1,1.2-1,0.6-1.6,0.7c-0.8,0.1-0.5-0.5-0.4-0.9
		c0.1-1.4,0.5-2.7,0.4-4.1s-1-2.1-2.4-2.1c-1.5,0.1-2.8,1.3-2.9,2.8c-0.1,1.3,0.8,2.3,2.1,2.5C24.6,33.2,25.4,32.7,26.2,32.2z"/>
	<path fill="#FFFFFF" d="M37.4,23.3c0.4-0.2,0.9-0.6,0.7,0.4c-0.2,1.4-0.4,2.8-0.6,4.5c1.3-1.5,2.4-2.7,3.6-4
		c0.5,1.3,0.7,2.3-0.5,3.2c-0.4,0.3-0.6,0.7-1,1c-0.5,0.4-0.5,0.8-0.1,1.4c1.2,1.6,2.4,3.3,3.6,5c-1.8,0.5-3,0.1-3.8-1.6
		c-0.5-1.1-1.3-2-2.1-3.2c-0.2,1.4-0.3,2.6-0.5,3.8c-0.1,1-1.3,1.6-2.2,1.1c-0.2-0.1-0.2-0.3-0.2-0.5c0.5-3.4,1-6.9,1.4-10.3
		C36.7,23.6,36.7,23.6,37.4,23.3z"/>
	<path fill="#FFFFFF" d="M30.4,34.9c-0.9,0.2-1-0.3-0.9-1.1c0.3-1.7,0.5-3.4,0.7-5.1c0.3-2,1.9-3,3.9-2.7
		c0.4,0.1,0.6,0.2,0.4,0.5c-0.2,0.5,0.2,1.6-0.7,1.5c-1.5-0.1-1.6,0.8-1.7,1.9c-0.2,1.4-0.4,2.8-0.5,4.1
		C31.5,34.9,31.4,34.9,30.4,34.9z"/>
	<path fill="#FFFFFF" d="M10.8,34.4c-0.1,0.9-0.3,1.7-0.3,2.5c0,0.5-0.2,0.7-0.8,0.7c-1,0.1-1.4-0.1-1.2-1.3
		c0.3-1.9,0.5-3.8,0.8-5.6c0.3-2.5,1.6-4.1,4-4.9c1.6-0.5,3.2-0.3,4.4,1.1c1.2,1.3,1.4,2.9,0.7,4.6C17.4,34.3,13.4,36.1,10.8,34.4
		c0.1-1.2,0.2-2.2,0.6-4c-0.4,2.1,1.2,2.7,2.3,2.7c1.7,0,3.2-1.6,3-3.1c-0.2-1.2-1.4-2.2-2.4-2.2c-1.5-0.1-2.7,1.1-2.9,2.6
		C11.1,31.7,11,32.8,10.8,34.4z"/>
</g>
</svg>
